<?xml version="1.0" encoding="UTF-8"?>
<svg version="1.1" xmlns="http://www.w3.org/2000/svg" width="311" height="298">
<path d="M0 0 C102.63 0 205.26 0 311 0 C311 98.34 311 196.68 311 298 C208.37 298 105.74 298 0 298 C0 199.66 0 101.32 0 0 Z " fill="#FDFEFE" transform="translate(0,0)"/>
<path d="M0 0 C0.66 0 1.32 0 2 0 C2.433125 0.763125 2.86625 1.52625 3.3125 2.3125 C5.26315343 5.41909621 6.69559204 6.46306607 10 8 C13.19395026 8.71401232 13.19395026 8.71401232 16 9 C16.185625 7.576875 16.185625 7.576875 16.375 6.125 C17 3 17 3 19 1 C19.99 1 20.98 1 22 1 C22 1.66 22 2.32 22 3 C22.99 3.495 22.99 3.495 24 4 C23.82984375 4.55816406 23.6596875 5.11632812 23.484375 5.69140625 C22.95009931 8.23783314 23.07439494 10.34732535 23.25 12.9375 C23.26655396 16.67869518 23.13358318 17.78885239 21.0625 21.0625 C17.51871142 23.30448869 15.36045818 23.34768497 11.28515625 23.55859375 C7.80267058 24.23127902 5.88530529 26.19081087 3.41015625 28.625 C2 30 2 30 0 31 C-0.34831111 33.11368282 -0.6020915 35.24316887 -0.8125 37.375 C-1.68794163 44.32159376 -3.7143512 49.8550843 -7 56 C-4.69 56 -2.38 56 0 56 C-2 58 -2 58 -5.375 58.25 C-9.2156036 58.63741694 -9.2156036 58.63741694 -11.25 61.875 C-12.11625 63.421875 -12.11625 63.421875 -13 65 C-14.75 66.875 -14.75 66.875 -16 68 C-16 65.36 -16 62.72 -16 60 C-27.10779566 64.03214921 -37.7387975 69.24654414 -44.046875 79.6875 C-45.59935887 83.45418218 -45.66634002 87.01039458 -45 91 C-44.67 91.66 -44.34 92.32 -44 93 C-43.34 93 -42.68 93 -42 93 C-41.505 92.319375 -41.01 91.63875 -40.5 90.9375 C-36.43448498 86.16051985 -30.98967128 81.99655709 -25 80 C-23.27204648 79.93197033 -21.54164635 79.91504355 -19.8125 79.9375 C-18.46091797 79.95103516 -18.46091797 79.95103516 -17.08203125 79.96484375 C-16.39496094 79.97644531 -15.70789063 79.98804687 -15 80 C-15.1875 82.296875 -15.1875 82.296875 -16 85 C-18.25 86.765625 -18.25 86.765625 -21 88.25 C-21.9075 88.75015625 -22.815 89.2503125 -23.75 89.765625 C-24.4925 90.17296875 -25.235 90.5803125 -26 91 C-27.29524348 92.09354906 -27.29524348 92.09354906 -27.375 94.75 C-26.87951481 99.044205 -25.29314471 100.31953337 -22 103 C-12.58690843 106.13769719 -2.15198721 104.0005091 6.546875 99.7578125 C9.71199041 98.05429497 12.44954999 96.55045001 15 94 C16.32 94 17.64 94 19 94 C18.50524877 98.17311906 17.52759996 99.94268803 14.3125 102.625 C13.64863281 103.19476563 12.98476562 103.76453125 12.30078125 104.3515625 C10 106 10 106 4 109 C8.29 107.02 12.58 105.04 17 103 C16 108 16 108 13.9375 110.0625 C8.87298867 113.40292237 3.62901999 115.748392 -2 118 C1.96 116.68 5.92 115.36 10 114 C8.79700675 118.811973 8.10505012 119.37276792 4 122 C0.38167499 123.4860069 -3.28532763 124.77695551 -7 126 C-3.87709365 125.51421457 -1.00419641 125.0013988 2 124 C1.33569507 126.65721974 0.66303927 128.49228228 -1.55078125 130.1875 C-7.11178805 133.42645899 -11.81100729 134.14515788 -18.25 134.5625 C-19.51328125 134.64628906 -20.7765625 134.73007813 -22.078125 134.81640625 C-23.04234375 134.87699219 -24.0065625 134.93757812 -25 135 C-14.15608965 145.6326206 -14.15608965 145.6326206 -0.15625 150.375 C4.43305507 150.21986095 7.88508441 148.58824891 11.875 146.4375 C12.57407471 146.07615967 13.27314941 145.71481934 13.9934082 145.3425293 C18.81059214 142.79723421 23.13793873 139.83759441 27.5078125 136.5859375 C31.373844 134.12573564 35.58360819 132.78916314 39.87890625 131.24609375 C49.49311093 127.40763156 57.88046193 120.13691414 62.58789062 110.8762207 C64.32260523 106.69987219 64.46756885 102.83401885 64.46875 98.35546875 C64.47636353 97.54564041 64.48397705 96.73581207 64.49182129 95.90144348 C64.50257256 94.19628971 64.50549574 92.49107035 64.50097656 90.78588867 C64.51000636 88.20442372 64.54163633 85.62595713 64.5859375 83.04492188 C64.66285509 72.58425647 63.94153012 64.83999014 56.9375 56.5625 C56.298125 56.046875 55.65875 55.53125 55 55 C54.360625 54.46375 53.72125 53.9275 53.0625 53.375 C47.3537756 49.56918374 41.68585914 48.91713693 35 50 C28.82699785 52.35036231 22.98549725 55.0059691 18.2734375 59.73828125 C16 62 16 62 13 62 C13.35469336 52.60062609 18.00188488 44.44003514 24.30078125 37.5625 C32.43395912 30.08371575 40.2961985 27.51735109 51.25390625 27.6796875 C63.33726367 28.71288386 72.29241054 33.32338789 80.109375 42.453125 C83.24043325 46.67099685 85.21980732 51.07749751 87 56 C87.3196875 56.87914062 87.639375 57.75828125 87.96875 58.6640625 C93.94501262 78.30825909 89.46039071 99.58631565 80.22241211 117.42138672 C66.45258959 142.57626045 43.02971272 162.5094061 17 174 C15.45699219 174.68449219 15.45699219 174.68449219 13.8828125 175.3828125 C4.68041515 178.94905321 -5.2115598 179.88807491 -14.640625 176.8125 C-34.18059731 167.6996878 -50.05659107 150.81531286 -62.71191406 133.73681641 C-63.98886254 132.01501741 -65.28666604 130.31045518 -66.5859375 128.60546875 C-84.47786374 104.75298681 -96.80783161 75.16208797 -92.71875 44.91992188 C-90.14321361 30.65203561 -81.28752435 17.48132451 -69.453125 9.22265625 C-56.95716986 1.47895072 -43.34931237 -1.29754372 -28.796875 1.6484375 C-18.61932306 5.05064772 -8.72411091 11.72634587 -3.75 21.44140625 C-2.77296898 23.60919383 -1.85512912 25.78169445 -1 28 C-0.29423828 27.27683594 -0.29423828 27.27683594 0.42578125 26.5390625 C1.04839844 25.90742187 1.67101562 25.27578125 2.3125 24.625 C2.92738281 23.99851562 3.54226562 23.37203125 4.17578125 22.7265625 C6 21 6 21 9 19 C8.44570312 18.69707031 7.89140625 18.39414062 7.3203125 18.08203125 C1.44328151 14.68339233 1.44328151 14.68339233 -0.5 11.6875 C-1.18166302 8.02356129 -1.18644025 4.7288049 -1 1 C-0.67 0.67 -0.34 0.34 0 0 Z " fill="#105984" transform="translate(154,15)"/>
<path d="M0 0 C0.66 0 1.32 0 2 0 C2.433125 0.763125 2.86625 1.52625 3.3125 2.3125 C5.26315343 5.41909621 6.69559204 6.46306607 10 8 C13.19395026 8.71401232 13.19395026 8.71401232 16 9 C16.185625 7.576875 16.185625 7.576875 16.375 6.125 C17 3 17 3 19 1 C19.99 1 20.98 1 22 1 C22 1.66 22 2.32 22 3 C22.99 3.495 22.99 3.495 24 4 C23.82984375 4.55816406 23.6596875 5.11632812 23.484375 5.69140625 C22.95009931 8.23783314 23.07439494 10.34732535 23.25 12.9375 C23.26655396 16.67869518 23.13358318 17.78885239 21.0625 21.0625 C17.51871142 23.30448869 15.36045818 23.34768497 11.28515625 23.55859375 C7.80267058 24.23127902 5.88530529 26.19081087 3.41015625 28.625 C2 30 2 30 0 31 C-0.34831111 33.11368282 -0.6020915 35.24316887 -0.8125 37.375 C-1.68794163 44.32159376 -3.7143512 49.8550843 -7 56 C-4.69 56 -2.38 56 0 56 C-2 58 -2 58 -4.90625 58.125 C-6.0921875 58.08375 -7.278125 58.0425 -8.5 58 C-14.65895727 57.91829955 -20.059834 58.43368757 -26 60 C-26.80824219 60.19464844 -27.61648437 60.38929687 -28.44921875 60.58984375 C-39.30424822 63.46974953 -50.68478089 69.23949007 -56.875 78.9375 C-57.24625 79.618125 -57.6175 80.29875 -58 81 C-58.66 81 -59.32 81 -60 81 C-63.03072149 73.14767614 -64.07001421 65.30422604 -65 57 C-65.65176423 60.31136086 -66.29529828 63.62427245 -66.9375 66.9375 C-67.11990234 67.86369141 -67.30230469 68.78988281 -67.49023438 69.74414062 C-69.73178015 81.35942327 -70.26302873 92.76088745 -70.5625 104.5625 C-70.60577645 106.15951455 -70.64939337 107.75651991 -70.69335938 109.35351562 C-70.79950069 113.23558223 -70.90102619 117.11774432 -71 121 C-87.5319585 100.79140952 -95.37421206 72.79835787 -93 47 C-91.08245133 32.81812965 -82.97529608 19.9946549 -72 11 C-59.47467149 2.25916492 -47.12816861 -0.29072554 -32 1 C-21.9611315 3.03225874 -12.64530272 9.11388382 -6.25 17.08984375 C-4.01375762 20.50710163 -2.46504549 24.19949965 -1 28 C-0.29423828 27.27683594 -0.29423828 27.27683594 0.42578125 26.5390625 C1.04839844 25.90742187 1.67101562 25.27578125 2.3125 24.625 C2.92738281 23.99851562 3.54226562 23.37203125 4.17578125 22.7265625 C6 21 6 21 9 19 C8.44570312 18.69707031 7.89140625 18.39414062 7.3203125 18.08203125 C1.44328151 14.68339233 1.44328151 14.68339233 -0.5 11.6875 C-1.18166302 8.02356129 -1.18644025 4.7288049 -1 1 C-0.67 0.67 -0.34 0.34 0 0 Z " fill="#2384BC" transform="translate(154,15)"/>
<path d="M0 0 C7.4540732 6.41396996 12.33601489 13.04513586 15.6875 22.3125 C16.16703125 23.63121094 16.16703125 23.63121094 16.65625 24.9765625 C22.63251262 44.62075909 18.14789071 65.89881565 8.90991211 83.73388672 C-2.16780553 103.9707916 -19.49955134 119.48295957 -38.3125 132.3125 C-38.43753906 131.67828125 -38.56257813 131.0440625 -38.69140625 130.390625 C-39.11878279 128.1402786 -39.11878279 128.1402786 -41.25 127.0625 C-43.68332332 126.17765516 -44.73190312 126.07225301 -47.125 127.0625 C-49.3125 127.3125 -49.3125 127.3125 -52.0625 125.375 C-52.805 124.694375 -53.5475 124.01375 -54.3125 123.3125 C-54.3125 123.9725 -54.3125 124.6325 -54.3125 125.3125 C-53.6525 125.6425 -52.9925 125.9725 -52.3125 126.3125 C-54.230625 126.1578125 -54.230625 126.1578125 -56.1875 126 C-57.26644531 125.91298828 -57.26644531 125.91298828 -58.3671875 125.82421875 C-60.3125 125.3125 -60.3125 125.3125 -62.3125 122.3125 C-62.8075 123.3025 -62.8075 123.3025 -63.3125 124.3125 C-63.9725 123.3225 -64.6325 122.3325 -65.3125 121.3125 C-66.3025 121.8075 -66.3025 121.8075 -67.3125 122.3125 C-67.6425 121.3225 -67.9725 120.3325 -68.3125 119.3125 C-66.16753022 115.17752024 -62.85890309 113.8898248 -58.75 112 C-54.26258109 109.88156504 -50.22946423 107.69173368 -46.25 104.6875 C-41.61152421 101.26204666 -36.83112507 99.49763621 -31.43359375 97.55859375 C-21.81938907 93.72013156 -13.43203807 86.44941414 -8.72460938 77.1887207 C-6.98989477 73.01237219 -6.84493115 69.14651885 -6.84375 64.66796875 C-6.83613647 63.85814041 -6.82852295 63.04831207 -6.82067871 62.21394348 C-6.80992744 60.50878971 -6.80700426 58.80357035 -6.81152344 57.09838867 C-6.81249364 54.51692372 -6.77086367 51.93845713 -6.7265625 49.35742188 C-6.64964491 38.89675647 -7.37096988 31.15249014 -14.375 22.875 C-15.014375 22.359375 -15.65375 21.84375 -16.3125 21.3125 C-16.951875 20.77625 -17.59125 20.24 -18.25 19.6875 C-23.9587244 15.88168374 -29.62664086 15.22963693 -36.3125 16.3125 C-42.48550215 18.66286231 -48.32700275 21.3184691 -53.0390625 26.05078125 C-55.3125 28.3125 -55.3125 28.3125 -58.3125 28.3125 C-57.95780664 18.91312609 -53.31061512 10.75253514 -47.01171875 3.875 C-33.29124086 -8.74153139 -16.09721465 -8.20046784 0 0 Z " fill="#176A9B" transform="translate(225.3125,48.6875)"/>
<path d="M0 0 C7.07622563 4.11813131 11.82429801 10.97831935 14.75 18.5 C15.28440082 21.42826774 15.33583668 24.27057479 15.31640625 27.2421875 C15.32260483 28.05060089 15.32880341 28.85901428 15.33518982 29.69192505 C15.34224872 31.39112148 15.33918317 33.09038765 15.32641602 34.78955078 C15.31256823 37.36232435 15.34665319 39.93143976 15.38476562 42.50390625 C15.42648151 51.54660588 15.14779248 58.84340433 9.75 66.5 C8.6671875 68.0778125 8.6671875 68.0778125 7.5625 69.6875 C1.11055958 76.13944042 -6.03862147 80.16188413 -14.5078125 83.4375 C-17.42690971 84.52289785 -17.42690971 84.52289785 -20.8125 86.25 C-29.16445339 89.28707396 -38.47495585 88.63782792 -47.25 88.5 C-47.25 88.17 -47.25 87.84 -47.25 87.5 C-46.31800781 87.34144531 -45.38601562 87.18289062 -44.42578125 87.01953125 C-30.38703363 84.4502559 -16.68723411 80.68095752 -6.75 69.75 C-6.255 69.0075 -5.76 68.265 -5.25 67.5 C-4.26 66.015 -4.26 66.015 -3.25 64.5 C-2.93287724 61.82500707 -2.93287724 61.82500707 -3 58.9375 C-2.99484375 57.96683594 -2.9896875 56.99617188 -2.984375 55.99609375 C-3.00405504 53.32707063 -3.00405504 53.32707063 -5.25 51.5 C-6.2090625 52.799375 -6.2090625 52.799375 -7.1875 54.125 C-11.31113224 59.09692231 -17.28884589 63.03252035 -23.25 65.5 C-25.609375 65.6953125 -25.609375 65.6953125 -28 65.625 C-28.79921875 65.60695313 -29.5984375 65.58890625 -30.421875 65.5703125 C-31.02515625 65.54710937 -31.6284375 65.52390625 -32.25 65.5 C-32.58 64.18 -32.91 62.86 -33.25 61.5 C-32.73050781 61.19707031 -32.21101563 60.89414063 -31.67578125 60.58203125 C-27.36613631 57.99305785 -23.32177888 55.5626753 -20.25 51.5 C-19.92091833 48.39072953 -19.92091833 48.39072953 -21.25 45.5 C-26.41376247 40.47212601 -30.99656677 40.15179569 -37.91796875 40.21875 C-45.92728997 40.89480056 -52.96096747 43.91806248 -59.55859375 48.39453125 C-61.67386949 49.77703249 -63.86552926 50.68033818 -66.25 51.5 C-66.745 50.015 -66.745 50.015 -67.25 48.5 C-63.26752374 41.9255392 -57.34703688 37.8609889 -50.01171875 35.90234375 C-49.43035156 35.76957031 -48.84898437 35.63679688 -48.25 35.5 C-52.19949704 36.12816498 -55.44892028 37.3645529 -59.0625 39.0625 C-60.52623047 39.74505859 -60.52623047 39.74505859 -62.01953125 40.44140625 C-62.75558594 40.79074219 -63.49164063 41.14007813 -64.25 41.5 C-63.96890973 38.12691672 -63.5276132 36.77411177 -61.08203125 34.359375 C-58.11036549 32.40832272 -55.24054814 31.05670036 -51.9375 29.75 C-50.86886719 29.32203125 -49.80023438 28.8940625 -48.69921875 28.453125 C-47.89097656 28.13859375 -47.08273438 27.8240625 -46.25 27.5 C-49.38226415 28.05720761 -52.16213938 28.75449423 -55.0625 30.0625 C-56.114375 30.536875 -57.16625 31.01125 -58.25 31.5 C-58.00873283 28.24289315 -57.04730672 27.29730672 -54.6875 24.9375 C-49.54729396 20.93134422 -43.65355873 19.30044484 -37.25 18.5 C-43.31264222 19.16264086 -43.31264222 19.16264086 -49.25 20.5 C-48.29033823 17.27204678 -47.58900769 15.75871639 -44.875 13.6875 C-42.25 12.5 -42.25 12.5 -38.25 12.5 C-37.92 11.84 -37.59 11.18 -37.25 10.5 C-36.63253906 10.35046875 -36.01507813 10.2009375 -35.37890625 10.046875 C-32.89214207 9.40807319 -31.99249501 8.54114595 -30.1875 6.75 C-21.8092871 -0.64569326 -10.72778146 -4.60943211 0 0 Z " fill="#9CDBFE" transform="translate(204.25,65.5)"/>
<path d="M0 0 C9.30390883 8.00568899 16.87970365 18.71300397 17.84423828 31.36914062 C17.88288084 33.4998621 17.86317736 35.61960157 17.8125 37.75 C17.80347656 38.48154297 17.79445313 39.21308594 17.78515625 39.96679688 C17.76186153 41.74884298 17.7260019 43.53071759 17.6875 45.3125 C15.11390846 42.77081249 12.70004264 40.33131396 10.6875 37.3125 C10.6875 36.6525 10.6875 35.9925 10.6875 35.3125 C10.0275 35.3125 9.3675 35.3125 8.6875 35.3125 C8.6875 34.6525 8.6875 33.9925 8.6875 33.3125 C8.0275 33.3125 7.3675 33.3125 6.6875 33.3125 C6.0275 32.61125 5.3675 31.91 4.6875 31.1875 C-2.34332203 23.90998246 -15.16309666 16.94683771 -25.3125 16.3125 C-26.075625 16.21582031 -26.83875 16.11914062 -27.625 16.01953125 C-36.33543687 15.34852376 -43.10850211 18.7143927 -50.3125 23.3125 C-51.21226562 24.21613281 -52.11203125 25.11976562 -53.0390625 26.05078125 C-55.3125 28.3125 -55.3125 28.3125 -58.3125 28.3125 C-57.95780664 18.91312609 -53.31061512 10.75253514 -47.01171875 3.875 C-33.29124086 -8.74153139 -16.09721465 -8.20046784 0 0 Z " fill="#105D89" transform="translate(225.3125,48.6875)"/>
<path d="M0 0 C6.6315356 3.87414034 10.78718809 9.7766427 12.87890625 17.09765625 C13.43844016 20.76307751 13.74043864 24.39364772 13.87890625 28.09765625 C13.27304688 28.20722656 12.6671875 28.31679687 12.04296875 28.4296875 C-2.05885635 31.09818671 -14.99287022 35.37072 -25.12109375 46.09765625 C-26.1668467 47.73600254 -27.1903725 49.39133397 -28.12109375 51.09765625 C-28.78109375 51.09765625 -29.44109375 51.09765625 -30.12109375 51.09765625 C-34.71597187 38.35337164 -36.43093483 24.26948397 -31.00390625 11.4609375 C-24.60254506 -0.63655017 -12.77053663 -5.54679874 0 0 Z " fill="#FBFCFD" transform="translate(124.12109375,44.90234375)"/>
<path d="M0 0 C6.93991528 4.03880315 12.10730537 10.97498391 14.75 18.5 C15.18958877 21.8584582 15.13496107 25.12078244 15 28.5 C14.98195312 29.37011719 14.96390625 30.24023438 14.9453125 31.13671875 C14.89868436 33.25829907 14.82696077 35.37930335 14.75 37.5 C13.76 37.83 12.77 38.16 11.75 38.5 C11.39808594 37.93152344 11.04617187 37.36304688 10.68359375 36.77734375 C3.6004997 25.69960658 -6.36735953 16.36479214 -19.25 12.5 C-24.24819298 11.97578661 -29.22908964 11.68739562 -34.25 11.5 C-26.35479515 1.06177037 -12.75141749 -5.39858863 0 0 Z " fill="#F9FCFD" transform="translate(204.25,65.5)"/>
<path d="M0 0 C5.7853125 -0.1546875 5.7853125 -0.1546875 11.6875 -0.3125 C13.4986731 -0.38078003 13.4986731 -0.38078003 15.34643555 -0.45043945 C23.07378177 -0.55074417 23.07378177 -0.55074417 25.85009766 1.10009766 C27.20703125 2.45703125 27.20703125 2.45703125 29 5 C29.33 5.33 29.66 5.66 30 6 C30.26225443 9.93381639 30.18227075 12.66916569 28 16 C27.01232906 17.0121789 26.01379111 18.01398399 25 19 C25.3609375 19.69867188 25.721875 20.39734375 26.09375 21.1171875 C26.5578125 22.02726562 27.021875 22.93734375 27.5 23.875 C27.9640625 24.77992188 28.428125 25.68484375 28.90625 26.6171875 C30 29 30 29 30 31 C26.37 31 22.74 31 19 31 C17.828125 28.42838542 16.65625 25.85677083 15.484375 23.28515625 C14.06626271 20.53387148 14.06626271 20.53387148 10 20 C10 23.63 10 27.26 10 31 C6.7 31 3.4 31 0 31 C0 20.77 0 10.54 0 0 Z " fill="#097BBD" transform="translate(152,220)"/>
<path d="M0 0 C3.3 0 6.6 0 10 0 C10 3.63 10 7.26 10 11 C13.63 11 17.26 11 21 11 C21 7.37 21 3.74 21 0 C24.3 0 27.6 0 31 0 C31 10.23 31 20.46 31 31 C27.7 31 24.4 31 21 31 C21 27.04 21 23.08 21 19 C17.37 19 13.74 19 10 19 C10 22.96 10 26.92 10 31 C6.7 31 3.4 31 0 31 C0 20.77 0 10.54 0 0 Z " fill="#0679BD" transform="translate(66,220)"/>
<path d="M0 0 C4.29 0 8.58 0 13 0 C14.43027612 3.76979921 15.85642395 7.54078262 17.27246094 11.31591797 C17.75512783 12.59903445 18.24013237 13.88127415 18.72753906 15.16259766 C19.42870823 17.00710185 20.12071828 18.85507955 20.8125 20.703125 C21.23144531 21.81333008 21.65039062 22.92353516 22.08203125 24.06738281 C23 27 23 27 23 31 C19.7 31 16.4 31 13 31 C12.67 29.68 12.34 28.36 12 27 C8.37 27 4.74 27 1 27 C0.67 28.32 0.34 29.64 0 31 C-3.3 31 -6.6 31 -10 31 C-8.59643358 23.85658565 -6.42618635 17.24817592 -3.875 10.4375 C-3.50246094 9.42880859 -3.12992187 8.42011719 -2.74609375 7.38085938 C-1.83589566 4.91865686 -0.91867313 2.45905296 0 0 Z " fill="#0B7CBE" transform="translate(118,220)"/>
<path d="M0 0 C3.69549224 1.23406637 5.54438795 3.39251727 7.875 6.5 C9 9 9 9 9 13 C5.7 13 2.4 13 -1 13 C-1.33 11.35 -1.66 9.7 -2 8 C-5.41656024 7.83322718 -5.41656024 7.83322718 -9 8 C-11.25075045 9.83111848 -11.25075045 9.83111848 -11.265625 12.53125 C-11.26046875 13.5109375 -11.2553125 14.490625 -11.25 15.5 C-11.25515625 16.4796875 -11.2603125 17.459375 -11.265625 18.46875 C-11.25075045 21.16888152 -11.25075045 21.16888152 -9 23 C-5.91652174 23.16681109 -5.91652174 23.16681109 -3 23 C-2.34 21.35 -1.68 19.7 -1 18 C2.3 18 5.6 18 9 18 C8.59724236 23.63860699 6.83521686 26.07346846 3 30 C-2.71912619 31.9063754 -10.56178266 32.48230837 -16.18359375 30.05859375 C-20.26142994 26.8146293 -21.74469717 22.9393196 -22.40625 17.9140625 C-22.69049968 7.94163621 -22.69049968 7.94163621 -19.125 3.75 C-13.74659403 -1.49849279 -7.14549155 -0.58529624 0 0 Z " fill="#0A7BBE" transform="translate(45,220)"/>
<path d="M0 0 C10.23 0 20.46 0 31 0 C31 2.64 31 5.28 31 8 C27.7 8 24.4 8 21 8 C21 15.59 21 23.18 21 31 C17.7 31 14.4 31 11 31 C11 23.41 11 15.82 11 8 C7.37 8 3.74 8 0 8 C0 5.36 0 2.72 0 0 Z " fill="#0C7CBE" transform="translate(216,220)"/>
<path d="M0 0 C3.80200661 -0.54797604 7.22327996 -0.79264495 11 0 C13.86799227 2.7812477 15.14169882 5.38384636 17 9 C18.65 6.03 20.3 3.06 22 0 C25.63 0 29.26 0 33 0 C31.27772702 4.30568244 29.51334778 7.4540138 26.9375 11.25 C26.22464844 12.30703125 25.51179688 13.3640625 24.77734375 14.453125 C23 17 23 17 22 18 C21.76518307 20.18292774 21.58636677 22.37203174 21.4375 24.5625 C21.35371094 25.76003906 21.26992188 26.95757812 21.18359375 28.19140625 C21.09271484 29.58166016 21.09271484 29.58166016 21 31 C17.7 31 14.4 31 11 31 C11.04382813 30.16339844 11.08765625 29.32679688 11.1328125 28.46484375 C11.11039353 18.34267929 8.07333774 12.92636459 2.15234375 4.984375 C0 2 0 2 0 0 Z " fill="#097ABD" transform="translate(256,220)"/>
<path d="M0 0 C0.66 0 1.32 0 2 0 C2.433125 0.763125 2.86625 1.52625 3.3125 2.3125 C5.26315343 5.41909621 6.69559204 6.46306607 10 8 C13.19395026 8.71401232 13.19395026 8.71401232 16 9 C16.12375 8.05125 16.2475 7.1025 16.375 6.125 C17 3 17 3 19 1 C19.99 1 20.98 1 22 1 C22 1.66 22 2.32 22 3 C22.66 3.33 23.32 3.66 24 4 C23.82984375 4.55816406 23.6596875 5.11632812 23.484375 5.69140625 C22.95009931 8.23783314 23.07439494 10.34732535 23.25 12.9375 C23.26655396 16.67869518 23.13358318 17.78885239 21.0625 21.0625 C17.51763462 23.30516993 15.35800667 23.34796132 11.28125 23.55859375 C7.81896932 24.22852135 5.94219573 26.17885646 3.5078125 28.625 C2 30 2 30 -1 31 C-1 28 -1 28 0.42578125 26.24609375 C1.04839844 25.64925781 1.67101562 25.05242188 2.3125 24.4375 C3.23482422 23.53837891 3.23482422 23.53837891 4.17578125 22.62109375 C6 21 6 21 9 19 C8.16855469 18.54560547 8.16855469 18.54560547 7.3203125 18.08203125 C1.44328151 14.68339233 1.44328151 14.68339233 -0.5 11.6875 C-1.18166302 8.02356129 -1.18644025 4.7288049 -1 1 C-0.67 0.67 -0.34 0.34 0 0 Z " fill="#61E1E6" transform="translate(154,15)"/>
<path d="M0 0 C3.3 0 6.6 0 10 0 C10 10.23 10 20.46 10 31 C6.7 31 3.4 31 0 31 C0 20.77 0 10.54 0 0 Z " fill="#087ABD" transform="translate(195,220)"/>
<path d="M0 0 C1.65 0 3.3 0 5 0 C5.67260351 1.76858691 6.33788395 3.53996016 7 5.3125 C7.37125 6.29863281 7.7425 7.28476562 8.125 8.30078125 C9 11 9 11 9 14 C8.01 14 7.02 14 6 14 C6 13.34 6 12.68 6 12 C3.69 12 1.38 12 -1 12 C-1 12.99 -1 13.98 -1 15 C-2.32 15 -3.64 15 -5 15 C-4.54705135 13.24859857 -4.08741252 11.49892656 -3.625 9.75 C-3.36976563 8.77546875 -3.11453125 7.8009375 -2.8515625 6.796875 C-2.10401491 4.34162697 -1.22876183 2.24382595 0 0 Z " fill="#1881C1" transform="translate(154,269)"/>
<path d="M0 0 C1.423125 -0.061875 2.84625 -0.12375 4.3125 -0.1875 C5.51326172 -0.23970703 5.51326172 -0.23970703 6.73828125 -0.29296875 C9 0 9 0 10.76953125 1.3515625 C12 3 12 3 12.375 5.5625 C12.25125 6.366875 12.1275 7.17125 12 8 C8.5647952 10.29013653 7.014669 10.17842973 3 10 C3 11.65 3 13.3 3 15 C2.01 15 1.02 15 0 15 C0 10.05 0 5.1 0 0 Z " fill="#127EBF" transform="translate(90,269)"/>
<path d="M0 0 C0.66 0 1.32 0 2 0 C3.39883743 2.79767487 2.93724997 4.8986272 2.6875 8 C2.56955078 9.60875 2.56955078 9.60875 2.44921875 11.25 C2 14 2 14 0 16 C-0.99 16 -1.98 16 -3 16 C-3.33 16.99 -3.66 17.98 -4 19 C-5.32 18.67 -6.64 18.34 -8 18 C-8.52654673 12.82229048 -8.52654673 12.82229048 -8 10 C-5.125 7.3125 -5.125 7.3125 -2 5 C-0.60180488 2.3485518 -0.60180488 2.3485518 0 0 Z " fill="#5EE1E6" transform="translate(186,13)"/>
<path d="M0 0 C3.63 0 7.26 0 11 0 C11 0.99 11 1.98 11 3 C8.36 3 5.72 3 3 3 C3 3.99 3 4.98 3 6 C5.31 6 7.62 6 10 6 C10 6.66 10 7.32 10 8 C7.69 8 5.38 8 3 8 C3 9.32 3 10.64 3 12 C5.64 12 8.28 12 11 12 C11 12.99 11 13.98 11 15 C7.37 15 3.74 15 0 15 C0 10.05 0 5.1 0 0 Z " fill="#1D83C2" transform="translate(211,269)"/>
<path d="M0 0 C-0.556875 0.515625 -1.11375 1.03125 -1.6875 1.5625 C-3.59591895 3.57407673 -5.11037697 5.48976264 -6.6875 7.75 C-7.8321875 9.35875 -7.8321875 9.35875 -9 11 C-9.33 11 -9.66 11 -10 11 C-10 8.36 -10 5.72 -10 3 C-10.68707031 3.28875 -11.37414062 3.5775 -12.08203125 3.875 C-12.98308594 4.24625 -13.88414062 4.6175 -14.8125 5 C-15.70582031 5.37125 -16.59914062 5.7425 -17.51953125 6.125 C-20 7 -20 7 -23 7 C-21.63016497 3.83884224 -21.0109362 3.0072908 -18 1 C-11.983758 -0.05548105 -6.09598348 -0.11242592 0 0 Z " fill="#114769" transform="translate(148,72)"/>
<path d="M0 0 C3.96 0 7.92 0 12 0 C12 0.99 12 1.98 12 3 C10.68 3 9.36 3 8 3 C8 6.96 8 10.92 8 15 C6.68 15 5.36 15 4 15 C4 11.04 4 7.08 4 3 C2.68 3 1.36 3 0 3 C0 2.01 0 1.02 0 0 Z " fill="#328EC7" transform="translate(180,269)"/>
<path d="M0 0 C1.32 0 2.64 0 4 0 C4 3.96 4 7.92 4 12 C5.98 12 7.96 12 10 12 C10 12.99 10 13.98 10 15 C6.7 15 3.4 15 0 15 C0 10.05 0 5.1 0 0 Z " fill="#3891C9" transform="translate(121,269)"/>
<path d="M0 0 C-0.66 0.66 -1.32 1.32 -2 2 C-6 0.66666667 -10 -0.66666667 -14 -2 C-21.12284804 -2.75743987 -29.3497442 -1.89176109 -35.10546875 2.66796875 C-35.73066406 3.10753906 -36.35585937 3.54710937 -37 4 C-37.99 3.67 -38.98 3.34 -40 3 C-27.315489 -6.64022836 -14.53298992 -5.40762416 0 0 Z " fill="#3593C9" transform="translate(222,47)"/>
<path d="M0 0 C2.64 0 5.28 0 8 0 C8.66 1.32 9.32 2.64 10 4 C8 6 8 6 6.0546875 6.1953125 C4.03645833 6.13020833 2.01822917 6.06510417 0 6 C0 4.02 0 2.04 0 0 Z " fill="#E3F0F7" transform="translate(162,227)"/>
<path d="M0 0 C2.76223278 2.76223278 2.57856291 5.20706617 3 9 C1.02 9 -0.96 9 -3 9 C-3 9.99 -3 10.98 -3 12 C-4.32 12 -5.64 12 -7 12 C-6.75 9.625 -6.75 9.625 -6 7 C-4.67532254 6.3162955 -3.34136367 5.65035814 -2 5 C-0.71745356 2.46229997 -0.71745356 2.46229997 0 0 Z " fill="#78B6DB" transform="translate(156,272)"/>
<path d="M0 0 C0.33 0.99 0.66 1.98 1 3 C-5.84592145 8.91238671 -5.84592145 8.91238671 -9 10 C-9.99 9.67 -10.98 9.34 -12 9 C-6.25 6 -6.25 6 -4 6 C-4 5.34 -4 4.68 -4 4 C-5.0828125 4.495 -5.0828125 4.495 -6.1875 5 C-9.01697427 6.00603529 -11.02895466 6.16977402 -14 6 C-11.09091772 4.06061181 -8.59137621 3.03225043 -5.3125 1.875 C-4.31863281 1.52179688 -3.32476562 1.16859375 -2.30078125 0.8046875 C-1.54152344 0.53914062 -0.78226563 0.27359375 0 0 Z " fill="#0D3F60" transform="translate(163,129)"/>
<path d="M0 0 C1.96301592 3.50538557 2.95902388 7.13351728 4 11 C1.69 11 -0.62 11 -3 11 C-2.44894091 7.0507432 -1.61064629 3.65079826 0 0 Z " fill="#D5E8F3" transform="translate(124,229)"/>
<path d="M0 0 C0.33 0.99 0.66 1.98 1 3 C-0.9628843 6.1708131 -2.12536 7.74158364 -5.75 8.8125 C-6.4925 8.874375 -7.235 8.93625 -8 9 C-8 8.34 -8 7.68 -8 7 C-8.66 6.67 -9.32 6.34 -10 6 C-6.7 4.02 -3.4 2.04 0 0 Z " fill="#114464" transform="translate(170,118)"/>
<path d="M0 0 C0.66 0 1.32 0 2 0 C2.50559908 1.43554025 3.0042749 2.8735202 3.5 4.3125 C3.7784375 5.11300781 4.056875 5.91351563 4.34375 6.73828125 C5 9 5 9 5 12 C4.01 12 3.02 12 2 12 C1.67 11.34 1.34 10.68 1 10 C-1.52733235 9.34444881 -1.52733235 9.34444881 -4 9 C-4 8.67 -4 8.34 -4 8 C-2.35 8 -0.7 8 1 8 C0.67 7.34 0.34 6.68 0 6 C-0.039992 4.00039988 -0.04346799 1.99952758 0 0 Z " fill="#117ABD" transform="translate(158,271)"/>
<path d="M0 0 C0.33 0 0.66 0 1 0 C1 4.62 1 9.24 1 14 C0.01 14.495 0.01 14.495 -1 15 C-2.13350534 17.01669827 -2.13350534 17.01669827 -3 19 C-2.58955515 12.42208127 -2.13391403 6.25948114 0 0 Z " fill="#033C5F" transform="translate(89,69)"/>
<path d="M0 0 C0 0.66 0 1.32 0 2 C-6.34241995 3.15316726 -12.56688704 3.09507063 -19 3 C-19 2.67 -19 2.34 -19 2 C-16.58525383 1.46839543 -14.16891893 0.94945234 -11.75 0.4375 C-11.06808594 0.28603516 -10.38617188 0.13457031 -9.68359375 -0.02148438 C-6.18230962 -0.75233495 -3.39701827 -1.32203546 0 0 Z " fill="#B0E2FF" transform="translate(176,151)"/>
<path d="M0 0 C-2.23518495 2.23518495 -3.87322364 2.84022892 -6.8125 3.9375 C-9.768371 5.07207675 -12.27847139 6.16824313 -15 7.8125 C-15.66 8.204375 -16.32 8.59625 -17 9 C-17.66 8.67 -18.32 8.34 -19 8 C-18.67 7.01 -18.34 6.02 -18 5 C-17.34 5 -16.68 5 -16 5 C-13.24399774 3.75735808 -10.53771159 2.42643407 -7.82421875 1.09375 C-4.96932983 -0.0118778 -3.02603922 -0.22047645 0 0 Z " fill="#E2F4FF" transform="translate(158,100)"/>
<path d="M0 0 C2.475 0.495 2.475 0.495 5 1 C5.5625 2.9375 5.5625 2.9375 6 5 C5 6 5 6 2.4375 6.0625 C1.2309375 6.0315625 1.2309375 6.0315625 0 6 C0 4.02 0 2.04 0 0 Z " fill="#D0E6F2" transform="translate(93,271)"/>
<path d="M0 0 C1.2065625 0.0309375 1.2065625 0.0309375 2.4375 0.0625 C1.12525452 3.99923644 -0.48160327 6.28969294 -3.5625 9.0625 C-3.66015625 2.91015625 -3.66015625 2.91015625 -3.5625 1.0625 C-2.5625 0.0625 -2.5625 0.0625 0 0 Z " fill="#3198D4" transform="translate(141.5625,73.9375)"/>
<path d="M0 0 C4.84659077 0.59104765 8.60748167 1.97944157 13 4 C12.01 4.495 12.01 4.495 11 5 C11.33 6.32 11.66 7.64 12 9 C8 6 4 3 0 0 Z " fill="#3296D0" transform="translate(202,65)"/>
<path d="M0 0 C0.33 0 0.66 0 1 0 C1.33 4.95 1.66 9.9 2 15 C-2.5 9.375 -2.5 9.375 -3 6 C-2.01 6.495 -2.01 6.495 -1 7 C-0.67 4.69 -0.34 2.38 0 0 Z " fill="#3FB8FA" transform="translate(81,121)"/>
<path d="M0 0 C0.66 0.33 1.32 0.66 2 1 C-1.63 4.63 -5.26 8.26 -9 12 C-9 7.8407692 -6.75316432 5.85455565 -4 3 C-1.6875 1.125 -1.6875 1.125 0 0 Z " fill="#194969" transform="translate(106,84)"/>
<path d="M0 0 C0.66 0 1.32 0 2 0 C3.35439668 2.70879335 3.06501451 5.00933268 3 8 C2.01 8.495 2.01 8.495 1 9 C0.67 8.01 0.34 7.02 0 6 C-0.99 6 -1.98 6 -3 6 C-2.01 4.02 -1.02 2.04 0 0 Z " fill="#70E4E9" transform="translate(186,13)"/>
<path d="M0 0 C0.66 0.33 1.32 0.66 2 1 C-0.64 3.64 -3.28 6.28 -6 9 C-6.33 8.34 -6.66 7.68 -7 7 C-4.78071806 4.09197539 -3.07030857 2.04687238 0 0 Z " fill="#154666" transform="translate(119,101)"/>
<path d="M0 0 C-0.99 0.66 -1.98 1.32 -3 2 C-3.99 2.721875 -4.98 3.44375 -6 4.1875 C-7.485 5.0846875 -7.485 5.0846875 -9 6 C-9.99 5.67 -10.98 5.34 -12 5 C-4.88610478 -0.74031891 -4.88610478 -0.74031891 0 0 Z " fill="#2D89BE" transform="translate(194,45)"/>
<path d="M0 0 C0.66 1.32 1.32 2.64 2 4 C0.02 4.99 -1.96 5.98 -4 7 C-4 4 -4 4 -2 1.8125 C-1.34 1.214375 -0.68 0.61625 0 0 Z " fill="#75E1E7" transform="translate(157,39)"/>
<path d="M0 0 C-2.0625 1.625 -2.0625 1.625 -5 3 C-8.8125 2.1875 -8.8125 2.1875 -12 1 C-12 0.67 -12 0.34 -12 0 C-3.42857143 -1.28571429 -3.42857143 -1.28571429 0 0 Z " fill="#02395C" transform="translate(162,166)"/>
<path d="M0 0 C0 3 0 3 -2 5.1875 C-2.66 5.785625 -3.32 6.38375 -4 7 C-4.99 6.67 -5.98 6.34 -7 6 C-6.34 6 -5.68 6 -5 6 C-4.9175 5.38125 -4.835 4.7625 -4.75 4.125 C-4 2 -4 2 -1.9375 0.75 C-1.298125 0.5025 -0.65875 0.255 0 0 Z " fill="#114263" transform="translate(155,139)"/>
<path d="M0 0 C0.66 0.33 1.32 0.66 2 1 C0.02 3.31 -1.96 5.62 -4 8 C-4.66 7.67 -5.32 7.34 -6 7 C-4.02 4.69 -2.04 2.38 0 0 Z " fill="#2878A6" transform="translate(180,51)"/>
</svg>
